<?xml version="1.0" encoding="UTF-8" standalone="no"?>
<!DOCTYPE svg PUBLIC "-//W3C//DTD SVG 1.1//EN" "http://www.w3.org/Graphics/SVG/1.1/DTD/svg11.dtd">
<svg xmlns="http://www.w3.org/2000/svg" xmlns:xlink="http://www.w3.org/1999/xlink" version="1.1" width="174pt" height="205.001pt" viewBox="0 0 174 205.001">
<g enable-background="new">
<g id="Layer-1" data-name="bildmarke">
<clipPath id="cp0">
<path transform="matrix(1,0,0,-1,0,205.001)" d="M 0 205.001 L 174 205.001 L 174 0 L 0 0 Z "/>
</clipPath>
<g clip-path="url(#cp0)">
<path transform="matrix(1,0,0,-1,53.4717,73.27371)" d="M 0 0 C .223 .423 2.127 4.564 4.635 8.114 C 5.883 9.885 7.286 11.475 8.444 12.487 C 9.604 13.498 10.454 13.988 10.454 13.988 C 11.556 14.731 12.763 15.25 14.007 15.423 C 14.319 15.466 14.629 15.512 14.944 15.493 C 15.258 15.503 15.572 15.494 15.886 15.438 L 16.354 15.38 L 16.825 15.251 L 17.769 14.995 C 20.257 14.064 22.524 12.356 24.5 10.392 C 27.101 8.15 29.339 5.41 31.241 2.453 C 29.855 5.033 28.21 7.484 26.282 9.697 C 24.353 11.895 22.138 13.896 19.54 15.261 C 17.453 16.272 15.032 16.807 12.796 16.091 C 10.56 15.437 8.664 13.916 7.097 12.185 C 5.521 10.438 4.213 8.456 3.063 6.395 C 1.902 4.336 .908 2.185 0 0 " fill="#000003"/>
<path transform="matrix(1,0,0,-1,79.5215,62.2424)" d="M 0 0 C 5.34 -5.893 8.899 -13.306 10.12 -21.06 C 9.507 -18.656 8.653 -16.341 7.623 -14.124 C 6.026 -9.059 3.511 -4.189 0 0 " fill="#000003"/>
<path transform="matrix(1,0,0,-1,72.3174,178.40941)" d="M 0 0 L -.369 -1.159 L -.774 -2.269 L -1.704 -4.575 C -2.337 -6.101 -3.002 -7.597 -3.723 -9.043 C -4.45 -10.484 -5.249 -11.865 -6.134 -13.124 C -7.015 -14.38 -8.014 -15.517 -9.093 -16.258 C -10.177 -17.013 -11.234 -17.327 -12.293 -17.182 C -12.874 -17.116 -14.039 -16.303 -14.891 -15.262 C -16.679 -13.142 -17.893 -10.279 -18.522 -7.337 C -19.175 -4.38 -19.306 -1.279 -19.026 1.802 C -18.987 2.572 -18.873 3.342 -18.746 4.111 C -18.633 4.876 -18.521 5.642 -18.346 6.45 C -18.04 8.042 -17.67 9.639 -17.293 11.239 C -16.253 15.991 -14.983 20.788 -13.935 25.764 C -13.054 30.015 -12.329 34.495 -12.257 39.026 C -12.137 43.74 -12.289 48.717 -13.405 53.646 C -13.96 56.095 -14.724 58.476 -15.599 60.753 C -15.641 60.863 -15.689 60.966 -15.731 61.076 C -16.216 59.001 -17.022 57.083 -17.608 55.229 C -17.155 53.749 -16.77 52.246 -16.492 50.719 C -15.867 47.441 -15.68 44.095 -15.651 40.764 C -15.585 37.434 -15.823 34.083 -16.311 30.783 C -17.286 24.174 -19.019 17.722 -20.292 11.205 C -20.928 7.945 -21.516 4.672 -21.617 1.387 C -21.731 -1.897 -21.414 -5.199 -20.538 -8.346 C -20.335 -9.136 -20.031 -9.895 -19.772 -10.666 C -19.433 -11.403 -19.164 -12.176 -18.753 -12.875 C -18.021 -14.318 -17.088 -15.659 -15.973 -16.784 C -15.424 -17.353 -14.807 -17.847 -14.155 -18.235 C -13.836 -18.443 -13.484 -18.557 -13.153 -18.696 C -12.816 -18.766 -12.49 -18.863 -12.101 -18.824 C -10.604 -18.864 -9.168 -18.222 -7.977 -17.233 C -5.567 -15.22 -3.995 -12.235 -2.626 -9.291 C -1.953 -7.796 -1.352 -6.261 -.776 -4.712 C -.196 -3.141 .35 -1.631 .75 -.043 C 2.364 6.341 3.423 12.928 4.597 19.476 C 3.173 12.928 1.863 6.3 0 0 " fill="#000003"/>
<path transform="matrix(1,0,0,-1,55.7646,134.2449)" d="M 0 0 C -.014 -.385 -.03 -1.57 -.128 -3.351 C -.228 -5.144 -.367 -7.492 -.812 -10.188 C -1.646 -15.606 -3.686 -22.376 -5.586 -29.231 C -6.052 -30.949 -6.508 -32.671 -6.912 -34.387 C -7.325 -36.104 -7.698 -37.777 -7.966 -39.522 C -8.527 -42.959 -8.639 -46.269 -8.395 -49.117 C -8.128 -51.965 -7.549 -54.332 -7.032 -55.968 C -6.765 -56.783 -6.501 -57.416 -6.343 -57.851 C -6.187 -58.287 -6.063 -58.51 -6.063 -58.51 C -4.86 -60.941 -3.317 -63.29 -.824 -65.29 C -.129 -65.772 .539 -66.252 1.483 -66.628 C 1.884 -66.831 2.462 -66.98 3.027 -67.095 C 3.639 -67.243 4.033 -67.204 4.508 -67.22 C 5.433 -67.274 6.338 -67.09 7.235 -66.879 C 7.686 -66.78 8.072 -66.581 8.49 -66.423 C 8.904 -66.256 9.313 -66.078 9.65 -65.851 C 12.564 -64.109 14.264 -61.779 15.655 -59.569 C 17.038 -57.326 18.093 -55.053 19.036 -52.793 C 19.507 -51.663 19.941 -50.536 20.359 -49.423 C 20.751 -48.395 21.242 -46.995 21.558 -45.837 C 22.238 -43.437 22.759 -41.121 23.263 -38.798 C 24.252 -34.167 25.098 -29.563 25.964 -24.999 C 26.319 -22.197 26.641 -19.33 27.104 -16.731 C 27.589 -14.091 28.283 -11.344 28.991 -8.629 C 30.446 -3.179 32.046 2.255 33.846 7.637 C 31.993 3.285 30.293 -1.105 28.669 -5.542 C 27.084 -9.986 25.47 -14.426 24.485 -18.961 C 23.474 -23.56 22.586 -28.235 21.604 -32.883 C 21.116 -35.21 20.611 -37.535 20.058 -39.855 C 19.497 -42.174 18.924 -44.489 18.121 -46.785 C 16.846 -50.391 15.482 -53.969 13.556 -57.345 C 12.582 -59.018 11.465 -60.652 9.981 -62.014 C 8.53 -63.368 6.52 -64.408 4.384 -64.324 C 3.875 -64.361 3.282 -64.211 2.773 -64.043 L 2.041 -63.716 C 1.803 -63.599 1.6 -63.443 1.379 -63.307 C .506 -62.747 -.204 -62.031 -.876 -61.296 C -2.186 -59.792 -3.166 -58.069 -3.949 -56.282 C -5.527 -52.695 -6.163 -48.79 -6.235 -44.932 C -6.312 -41.055 -5.681 -37.221 -4.936 -33.498 C -4.187 -29.758 -3.295 -26.062 -2.459 -22.368 C -1.622 -18.675 -.85 -14.976 -.378 -11.249 C .107 -7.536 .14 -3.762 0 0 " fill="#000003"/>
<path transform="matrix(1,0,0,-1,94.0449,96.44021)" d="M 0 0 C -.758 4.541 -2.327 9.013 -3.854 13.275 C -2.681 8.66 -1.908 4.931 -1.627 .187 Z " fill="#000003"/>
<path transform="matrix(1,0,0,-1,90.6396,114.875209)" d="M 0 0 C -.414 -1.972 -.716 -3.511 -1.219 -5.452 C -1.754 -7.477 -2.418 -9.458 -3.247 -11.369 C -4.084 -13.313 -4.877 -15.269 -5.655 -17.233 C -7.205 -21.162 -8.688 -25.115 -10.055 -29.124 C -10.734 -31.131 -11.391 -33.146 -11.95 -35.219 C -12.503 -37.3 -12.927 -39.371 -13.366 -41.438 C -12.835 -39.389 -12.317 -37.333 -11.677 -35.286 C -11.03 -33.247 -10.286 -31.266 -9.519 -29.294 C -7.978 -25.355 -6.321 -21.473 -4.601 -17.624 C -3.74 -15.702 -2.86 -13.785 -1.946 -11.901 C -1.003 -9.958 -.222 -7.915 .419 -5.851 C .972 -4.039 1.397 -1.888 1.861 -.091 Z " fill="#000003"/>
<path transform="matrix(1,0,0,-1,48.8105,85.013408)" d="M 0 0 C 1.014 4.036 2.221 6.027 3.681 9.927 C 5.157 13.817 6.874 17.643 9.173 21.137 C 10.319 22.882 11.658 24.516 13.243 25.901 C 14.832 27.26 16.773 28.336 18.918 28.548 C 21.065 28.772 23.174 28.054 25.031 27.09 C 26.905 26.106 28.581 24.791 30.083 23.323 C 28.62 24.856 26.979 26.251 25.095 27.317 C 24.644 27.616 24.14 27.827 23.642 28.05 C 23.391 28.158 23.146 28.283 22.89 28.377 L 22.096 28.613 C 21.055 28.983 19.891 29.06 18.767 28.99 C 16.479 28.822 14.377 27.71 12.681 26.321 C 10.968 24.917 9.541 23.242 8.298 21.477 C 7.398 20.157 6.59 18.787 5.853 17.388 C 5.219 16.189 4.623 14.974 4.073 13.741 C 2.87 11.074 1.833 8.345 .902 5.587 C .189 2.967 -.417 2.327 -.947 -.324 Z " fill="#000003"/>
<path transform="matrix(1,0,0,-1,54.2686,125.08961)" d="M 0 0 C -.613 3.055 -1.599 6.021 -2.802 8.886 C -3.444 10.422 -4.16 11.923 -4.841 13.444 C -5.502 14.973 -6.139 16.515 -6.665 18.098 C -7.735 21.255 -8.434 24.555 -8.594 27.9 C -8.757 31.242 -8.417 34.603 -7.726 37.873 C -6.722 38.254 -5.724 38.605 -4.733 38.927 C -5.496 34.897 -5.805 30.87 -5.257 27.014 C -4.741 23.152 -3.428 19.462 -1.664 15.823 C -1.466 15.321 -1.256 14.818 -1.033 14.316 L -.351 12.745 C .132 11.649 .599 10.534 1.032 9.392 C 1.272 8.768 1.502 8.134 1.723 7.495 C 4.02 17.476 7.266 31.293 9.292 36.929 C 10.137 39.275 16.105 52.122 16.514 68.367 C 16.198 68.513 15.878 68.649 15.554 68.77 L 14.611 69.026 L 14.14 69.155 L 13.671 69.213 C 13.358 69.269 13.044 69.278 12.73 69.268 C 12.415 69.287 12.105 69.241 11.793 69.198 C 10.548 69.025 9.341 68.506 8.24 67.763 C 8.24 67.763 7.39 67.273 6.23 66.262 C 5.072 65.25 3.669 63.66 2.42 61.889 C -.087 58.339 -1.992 54.198 -2.214 53.775 C -1.306 55.96 -.312 58.111 .848 60.17 C 1.999 62.231 3.306 64.213 4.882 65.96 C 6.45 67.691 8.345 69.212 10.582 69.866 C 12.539 70.493 14.638 70.161 16.53 69.391 C 16.531 69.547 16.532 69.704 16.532 69.86 C 15.108 70.415 13.586 70.744 12.043 70.583 C 9.898 70.371 7.957 69.295 6.368 67.936 C 4.783 66.551 3.444 64.917 2.298 63.172 C -.001 59.678 -1.718 55.852 -3.195 51.962 C -4.655 48.062 -5.256 44.126 -6.269 40.09 L -7.823 39.711 C -7.292 42.362 -6.686 45.002 -5.973 47.622 C -5.042 50.38 -4.005 53.109 -2.802 55.776 C -2.252 57.009 -1.657 58.224 -1.023 59.423 C -.285 60.822 .523 62.192 1.423 63.512 C 2.666 65.277 4.092 66.952 5.805 68.356 C 7.502 69.745 9.603 70.857 11.891 71.025 C 13.015 71.095 14.179 71.018 15.22 70.648 L 16.014 70.412 C 16.191 70.347 16.362 70.265 16.534 70.186 C 16.529 74.345 16.151 78.7 15.217 83.145 C 10.439 105.861 -2.718 120.473 -16.869 122.271 C -38.67 125.042 -42.319 107.064 -43.982 100.094 C -45.646 93.122 -47.45 77.534 -46.501 68.829 C -45.729 61.769 -40.778 37.366 -42.841 25.393 C -44.909 13.378 -50.484 -7.997 -51.54 -21.107 C -52.597 -34.218 -42.387 -44.176 -30.352 -45.146 C -18.317 -46.115 -10.778 -34.542 -8.184 -29.674 C -5.59 -24.809 -2.102 -8.848 -.439 -1.876 C -.313 -1.347 -.164 -.71 0 0 " fill="#000003"/>
</g>
<g id="Layer-1" data-name="wortmarke">
</g>
<clipPath id="cp1">
<path transform="matrix(1,0,0,-1,0,205.001)" d="M 0 205.001 L 174 205.001 L 174 0 L 0 0 Z "/>
</clipPath>
<g clip-path="url(#cp1)">
<path transform="matrix(1,0,0,-1,64.7568,116.669208)" d="M 0 0 C -.072 .036 -.217 .072 -.36 .072 L -.648 .072 C -.828 .072 -.973 .144 -1.044 .216 C -1.116 .36 -1.225 .432 -1.296 .432 L -1.332 .432 C -1.62 .432 -2.196 1.224 -2.304 1.764 C -2.34 2.124 -2.376 2.483 -2.376 2.88 C -2.376 3.6 -2.304 4.355 -2.124 4.859 C -1.513 6.839 -1.152 7.883 -.685 9.179 C -.396 9.971 -.072 10.979 .071 11.41 C .396 12.311 .756 13.139 .863 13.282 C .936 13.318 .972 13.462 1.008 13.606 C 1.008 13.714 1.331 14.506 1.655 15.37 C 2.052 16.27 2.339 17.062 2.339 17.098 C 2.339 17.206 2.447 17.458 2.591 17.674 C 2.699 17.926 3.023 18.718 3.275 19.474 C 3.815 21.094 5.255 25.377 5.65 26.276 C 5.795 26.601 5.975 27.213 6.047 27.536 L 6.587 29.229 C 6.767 29.769 6.982 30.452 6.982 30.668 C 7.019 31.064 7.091 31.172 7.45 31.352 C 7.667 31.46 7.774 31.532 7.919 31.532 L 8.135 31.46 C 8.278 31.388 8.675 31.316 8.963 31.244 C 9.286 31.208 9.826 31.1 10.15 31.028 C 10.438 30.956 10.834 30.884 11.122 30.884 L 12.778 30.956 L 13.282 30.92 C 13.354 30.884 13.678 30.848 13.966 30.848 L 16.485 30.704 C 16.882 30.704 17.241 30.74 17.421 30.776 L 17.926 30.812 C 18.033 30.812 18.105 30.812 18.105 30.776 C 18.142 30.704 18.321 30.704 18.465 30.704 L 18.537 30.704 C 18.861 30.704 19.509 30.164 19.509 29.876 L 19.509 29.84 C 19.437 29.408 18.682 28.868 18.249 28.868 C 18.142 28.868 18.069 28.904 18.033 28.977 C 17.961 29.156 17.674 29.265 17.313 29.265 L 16.953 29.229 C 16.846 29.192 16.701 29.192 16.521 29.192 L 15.766 29.229 C 15.586 29.265 15.37 29.265 15.189 29.265 C 14.974 29.265 14.758 29.265 14.649 29.192 C 14.542 29.156 14.397 29.12 14.254 29.12 L 13.857 29.156 C 13.21 29.156 11.194 28.977 11.05 28.868 C 11.015 28.868 11.015 28.796 11.015 28.725 L 11.05 28.4 C 11.05 27.536 9.574 22.209 8.927 20.266 L 8.351 18.573 C 8.351 18.538 8.459 18.538 8.675 18.538 C 8.927 18.538 9.322 18.538 9.862 18.609 L 11.122 18.682 C 11.482 18.682 11.734 18.646 11.914 18.609 L 12.778 18.43 C 12.994 18.43 13.21 18.286 13.282 18.178 L 13.57 17.854 C 13.642 17.817 13.678 17.781 13.678 17.746 C 13.678 17.674 13.605 17.602 13.498 17.458 C 13.246 17.17 12.706 16.99 12.202 16.99 C 12.022 16.99 11.842 17.025 11.698 17.062 C 11.446 17.17 11.05 17.206 10.618 17.206 C 10.042 17.206 9.358 17.134 8.711 16.954 L 7.811 16.773 C 7.307 15.262 6.982 14.542 6.767 13.786 L 5.039 9.358 L 4.247 7.235 C 4.067 6.587 3.815 5.903 3.743 5.687 C 3.635 5.472 3.419 4.787 3.203 4.14 C 2.159 .828 2.159 .756 1.079 .252 C .504 0 .287 -.108 .18 -.108 C .107 -.108 .071 -.072 0 0 " fill="#000003"/>
<path transform="matrix(1,0,0,-1,82.3594,108.7141)" d="M 0 0 C .576 .576 1.044 1.151 1.044 1.187 C 1.044 1.26 1.332 1.62 1.692 1.943 C 2.017 2.268 2.448 2.88 2.628 3.239 C 2.808 3.6 3.024 3.888 3.06 3.888 C 3.096 3.888 3.348 4.247 3.564 4.644 C 3.816 5.039 4.068 5.363 4.104 5.399 C 4.176 5.436 4.212 5.507 4.212 5.615 C 4.212 5.687 4.355 5.939 4.536 6.191 C 4.896 6.587 4.896 6.659 4.896 7.811 C 4.859 8.854 4.824 9.07 4.607 9.322 C 4.464 9.467 4.212 9.826 4.068 10.15 C 3.816 10.618 3.276 11.015 2.988 11.015 C 2.916 11.015 2.844 11.015 2.808 10.942 C 2.736 10.835 2.7 10.654 2.7 10.475 C 2.7 10.007 2.34 9.322 1.872 8.818 C 1.656 8.566 1.188 7.775 .864 7.091 C .54 6.407 .217 5.687 .108 5.507 C 0 5.291 -.071 4.896 -.071 4.607 C -.071 4.319 -.107 4.031 -.18 3.959 C -.323 3.852 -1.115 1.943 -1.403 1.08 C -1.548 .684 -1.619 -.072 -1.619 -.648 C -1.619 -1.008 -1.583 -1.26 -1.512 -1.296 L -1.439 -1.296 C -1.26 -1.296 -1.008 -1.044 0 0 M -2.159 -5.147 C -2.304 -5.111 -2.591 -5.039 -2.808 -5.039 C -3.06 -5.039 -3.239 -4.932 -3.383 -4.716 C -3.491 -4.535 -3.707 -4.392 -3.852 -4.392 C -4.104 -4.392 -5.146 -3.204 -5.363 -2.7 C -5.435 -2.52 -5.543 -2.376 -5.615 -2.376 C -5.687 -2.376 -5.759 -2.268 -5.759 -2.124 C -5.759 -1.979 -5.795 -1.872 -5.831 -1.872 C -5.938 -1.872 -6.299 -.648 -6.479 .468 C -6.587 .972 -6.623 1.655 -6.623 2.34 C -6.623 3.132 -6.551 3.924 -6.442 4.355 C -6.19 5.219 -5.471 7.091 -5.039 7.955 C -4.859 8.279 -4.751 8.639 -4.751 8.747 C -4.751 8.818 -4.643 8.999 -4.499 9.143 C -4.283 9.358 -4.031 9.755 -3.563 10.69 C -3.419 11.015 -3.203 11.303 -3.131 11.374 C -3.023 11.446 -2.951 11.555 -2.951 11.662 C -2.951 11.734 -2.987 11.771 -3.06 11.771 L -3.203 11.771 C -3.312 11.771 -3.383 11.807 -3.455 11.878 C -3.527 11.95 -3.527 12.022 -3.527 12.059 C -3.527 12.166 -3.491 12.274 -3.347 12.454 C -3.203 12.67 -2.915 12.922 -2.699 13.066 C -2.52 13.174 -2.339 13.354 -2.339 13.426 C -2.339 13.534 -2.159 13.678 -1.943 13.75 C -1.224 14.074 -.539 14.218 .072 14.218 C .612 14.218 1.116 14.11 1.548 13.895 C 1.908 13.75 2.269 13.606 2.376 13.606 C 2.628 13.606 4.104 12.814 4.5 12.418 C 5.508 11.519 5.832 11.122 5.976 10.583 C 6.048 10.259 6.191 9.971 6.228 9.898 L 6.624 8.999 C 6.84 8.387 6.911 7.991 6.911 6.983 C 6.911 5.831 6.876 5.687 6.552 5.111 C 6.372 4.859 6.3 4.68 6.3 4.644 L 6.336 4.607 L 6.372 4.644 L 6.588 4.751 C 6.588 4.463 5.796 2.987 5.399 2.52 C 4.968 2.016 4.716 1.584 4.068 .324 C 3.924 .072 3.528 -.432 3.168 -.828 C 2.772 -1.224 2.448 -1.728 2.412 -1.908 C 2.376 -2.052 1.98 -2.556 1.584 -2.952 C 1.152 -3.348 .792 -3.779 .792 -3.888 C .792 -4.176 .576 -4.428 -.107 -4.859 C -.539 -5.147 -1.008 -5.291 -1.439 -5.291 C -1.691 -5.291 -1.943 -5.22 -2.159 -5.147 " fill="#000003"/>
<path transform="matrix(1,0,0,-1,90.8564,114.18581)" d="M 0 0 C -.181 .036 -.324 .072 -.36 .145 C -.469 .288 -1.152 .72 -1.404 .792 C -1.62 .864 -2.017 1.512 -2.628 2.916 C -2.844 3.42 -2.916 3.672 -2.916 3.96 L -2.88 4.355 C -2.809 5.04 -2.34 6.371 -1.729 7.812 C -1.513 8.352 -1.188 9.287 -.973 9.899 C -.792 10.511 -.469 11.447 -.252 11.951 C 0 12.49 .252 13.103 .323 13.354 C .504 13.931 1.224 15.694 1.512 16.198 L 1.835 16.918 C 1.871 17.17 1.943 17.242 2.087 17.242 L 2.268 17.206 C 3.167 17.062 3.779 16.846 3.779 16.774 C 3.779 16.702 3.995 16.666 4.283 16.666 C 4.751 16.666 4.859 16.559 5.219 16.162 C 5.687 15.622 6.154 14.507 6.154 14.038 C 6.119 13.858 6.047 13.57 5.938 13.354 C 5.795 13.175 5.615 12.707 5.507 12.311 L 4.715 10.259 C 4.139 8.855 4.031 8.423 3.851 7.56 L 3.779 7.199 C 3.779 7.092 3.851 7.056 3.959 7.056 C 4.283 7.056 4.427 7.199 4.643 7.56 L 5.003 8.1 C 5.075 8.243 5.255 8.459 5.398 8.567 C 5.507 8.64 5.615 8.783 5.615 8.855 C 5.615 8.999 7.811 11.915 8.026 12.059 C 8.135 12.131 8.206 12.311 8.206 12.49 C 8.242 12.814 9.467 14.183 9.754 14.183 C 9.826 14.183 10.114 14.29 10.402 14.435 C 10.69 14.578 11.194 14.723 11.554 14.759 L 11.95 14.794 C 12.238 14.794 12.31 14.723 12.49 14.507 C 12.634 14.29 12.922 14.183 13.317 14.11 C 13.678 14.074 14.002 13.967 14.038 13.858 C 14.109 13.751 14.361 13.391 14.649 13.103 C 15.046 12.671 15.117 12.563 15.117 12.131 L 15.117 11.807 C 15.082 11.375 14.938 10.69 14.686 10.079 C 14.434 9.467 14.361 9.107 14.361 8.747 L 14.397 8.279 C 14.397 8.063 14.29 7.955 14.038 7.775 C 13.822 7.596 13.498 7.523 13.174 7.523 C 12.742 7.523 12.274 7.667 12.022 7.955 C 11.842 8.135 11.554 8.243 11.338 8.243 C 11.122 8.243 11.014 8.352 10.942 8.531 C 10.906 8.711 10.762 8.999 10.654 9.215 C 10.258 9.719 9.898 10.835 9.898 11.482 L 9.898 11.555 C 9.898 11.915 9.826 12.131 9.683 12.131 C 9.61 12.131 9.502 12.059 9.358 11.879 L 8.71 11.23 C 8.458 11.015 8.063 10.475 7.774 10.007 C 6.083 7.631 5.759 7.127 5.579 7.02 L 5.146 6.516 C 5.075 6.371 4.823 6.048 4.643 5.76 C 4.463 5.508 4.319 5.256 4.319 5.22 L 3.707 4.5 C 3.383 4.14 3.095 3.815 3.06 3.744 C 2.915 3.42 2.375 2.664 2.304 2.664 C 2.159 2.664 1.799 1.8 1.619 1.152 C 1.583 .9 1.403 .54 1.295 .324 C 1.151 .036 1.008 -.107 .684 -.107 Z " fill="#000003"/>
<path transform="matrix(1,0,0,-1,108.0635,114.689708)" d="M 0 0 C -.107 .072 -.432 .145 -.684 .216 C -1.26 .324 -1.836 .864 -2.124 1.62 C -2.34 2.124 -2.447 3.096 -2.447 4.067 C -2.447 4.896 -2.376 5.76 -2.195 6.335 L -1.907 7.631 C -1.836 8.135 -1.691 8.675 -1.584 8.819 C -1.512 8.999 -1.439 9.215 -1.439 9.287 L -1.439 9.323 C -1.439 9.575 -.899 11.555 -.432 12.994 L -.107 14.183 C -.107 14.255 .108 14.938 .396 15.694 C .648 16.45 .9 17.098 .9 17.206 C .9 17.278 1.044 17.53 1.224 17.782 C 1.439 18.07 1.584 18.214 1.764 18.214 L 1.8 18.214 C 1.944 18.214 2.124 18.214 2.196 18.286 L 2.34 18.322 L 3.023 18.178 L 3.456 18.214 C 3.6 18.214 3.743 18.178 3.815 18.142 C 3.888 18.105 3.96 18.105 4.031 18.105 C 4.104 18.105 4.212 18.105 4.283 18.142 C 4.392 18.214 4.464 18.214 4.5 18.214 C 4.535 18.214 4.571 18.214 4.571 18.142 C 4.607 18.105 4.68 18.07 4.752 18.07 L 4.859 18.07 C 5.075 18.07 5.363 17.89 5.939 17.422 C 6.047 17.35 6.155 16.99 6.228 16.666 C 6.264 16.486 6.299 16.342 6.299 16.198 C 6.299 16.019 6.264 15.838 6.155 15.622 C 6.047 15.37 5.939 14.902 5.903 14.578 C 5.903 14.255 5.795 13.751 5.687 13.427 C 5.579 13.175 5.508 12.887 5.508 12.707 L 5.508 12.635 C 5.508 12.526 5.472 12.347 5.399 12.311 C 5.327 12.238 5.291 12.095 5.291 11.986 L 5.291 11.951 C 5.291 11.807 5.22 11.519 5.111 11.267 C 4.932 10.655 4.319 8.531 4.176 7.883 L 3.815 6.552 C 3.672 5.976 3.6 5.615 3.6 5.399 C 3.6 5.256 3.636 5.22 3.672 5.22 L 3.708 5.22 C 3.779 5.22 3.924 5.472 4.031 5.724 C 4.14 5.976 4.248 6.191 4.319 6.228 C 4.355 6.228 4.787 6.911 5.291 7.775 C 5.831 8.639 6.299 9.323 6.371 9.323 C 6.407 9.359 6.443 9.431 6.443 9.539 C 6.443 9.611 6.552 9.827 6.659 10.043 C 6.804 10.259 7.127 10.835 7.379 11.375 C 7.631 11.915 8.027 12.526 8.207 12.814 C 8.387 13.03 8.531 13.282 8.531 13.354 C 8.531 13.391 8.639 13.606 8.783 13.786 C 8.927 14.003 9.107 14.11 9.395 14.11 C 9.683 14.146 9.863 14.219 10.15 14.542 C 10.727 15.118 12.238 15.802 13.391 15.982 L 14.326 16.054 L 14.65 16.019 L 14.902 16.054 C 15.154 16.126 15.406 16.162 15.586 16.162 C 15.946 16.162 16.234 16.054 16.486 15.802 C 16.882 15.479 17.062 15.19 17.062 14.723 C 17.062 14.435 16.99 14.038 16.846 13.498 L 16.558 12.203 L 16.558 12.167 C 16.558 11.986 16.414 11.591 16.234 11.123 C 16.054 10.619 15.838 10.079 15.802 9.899 C 15.802 9.719 15.622 9.287 15.442 8.927 C 15.298 8.604 15.154 8.243 15.154 8.135 L 15.154 8.1 C 15.154 8.027 15.046 7.631 14.902 7.271 C 14.758 6.875 14.65 6.552 14.65 6.479 C 14.65 6.407 14.471 6.012 14.254 5.544 C 14.074 5.111 13.967 4.716 13.967 4.571 L 13.967 4.5 C 13.967 4.464 14.002 4.464 14.038 4.464 C 14.146 4.464 14.362 4.716 14.902 5.399 C 17.098 8.171 18.682 10.367 18.682 10.583 L 18.682 10.619 C 18.682 10.727 18.934 11.123 19.186 11.519 C 19.474 11.915 19.726 12.347 19.798 12.455 C 19.869 12.563 20.086 12.671 20.266 12.707 C 20.481 12.778 20.733 12.959 20.949 13.246 C 21.13 13.498 21.346 13.715 21.382 13.751 C 21.453 13.751 21.741 14.11 22.065 14.507 C 22.713 15.406 22.821 15.442 24.945 15.802 C 25.197 15.838 25.449 15.838 25.737 15.838 C 26.349 15.838 26.925 15.767 27.141 15.586 C 27.213 15.515 27.356 15.227 27.465 14.938 C 27.537 14.723 27.572 14.578 27.572 14.362 C 27.572 14.146 27.537 13.858 27.429 13.391 C 27.285 12.851 27.104 12.131 26.961 11.807 C 26.853 11.482 26.745 11.015 26.709 10.763 C 26.673 10.511 26.457 9.719 26.205 8.963 C 25.989 8.243 25.701 7.308 25.629 6.947 L 25.161 5.292 C 24.981 4.68 24.873 4.355 24.873 4.176 C 24.873 4.031 24.909 3.996 25.017 3.996 L 25.053 3.996 C 25.161 4.031 25.233 4.067 25.233 4.14 L 25.233 4.176 C 25.233 4.248 25.305 4.319 25.413 4.355 C 25.485 4.355 25.881 4.823 26.312 5.363 C 27.501 6.875 28.725 8.279 28.868 8.315 C 28.94 8.315 29.408 8.855 29.876 9.503 L 30.74 10.69 C 30.776 10.331 30.776 10.403 30.776 10.007 C 30.776 9.755 30.704 9.539 30.597 9.323 C 30.164 8.675 29.301 7.523 29.192 7.487 C 29.049 7.487 28.148 6.407 26.457 4.212 C 26.276 3.96 26.024 3.744 25.917 3.708 C 25.809 3.672 25.701 3.636 25.665 3.563 C 25.665 3.492 25.449 3.24 25.197 2.988 C 24.945 2.736 24.765 2.448 24.765 2.376 L 24.765 2.34 C 24.765 2.231 24.585 2.016 24.369 1.836 C 24.153 1.656 23.937 1.404 23.901 1.296 C 23.829 1.08 22.642 .756 21.993 .756 L 21.777 .792 C 21.562 .864 21.237 .972 21.058 1.08 C 20.626 1.368 19.762 2.268 19.617 2.628 C 19.582 2.771 19.51 2.88 19.437 2.88 L 19.401 2.88 C 19.258 2.88 19.186 3.42 19.186 3.996 C 19.186 4.607 19.258 5.327 19.401 5.579 C 19.474 5.651 19.51 5.903 19.546 6.155 C 19.582 6.623 19.762 7.199 20.302 8.747 C 20.733 9.935 20.949 10.763 20.949 11.123 C 20.949 11.23 20.913 11.303 20.842 11.303 C 20.77 11.303 20.554 11.087 20.302 10.619 C 19.941 9.971 18.25 7.56 17.71 6.911 C 16.774 5.831 15.982 4.68 15.442 3.672 C 14.723 2.412 14.038 1.476 13.786 1.404 L 13.75 1.404 C 13.643 1.404 13.463 1.512 13.354 1.62 L 13.103 1.908 C 12.814 1.476 12.635 1.368 12.635 1.152 L 12.706 .937 C 12.706 .9 12.671 .9 12.635 .9 L 11.303 .864 L 10.763 .828 C 10.511 .828 10.367 .864 10.367 .9 C 10.367 .972 10.187 1.044 10.007 1.044 L 9.863 1.044 C 9.539 1.044 9.287 1.188 8.783 1.656 C 8.351 2.016 8.315 2.124 8.243 2.916 L 8.207 3.456 C 8.207 3.996 8.351 4.571 8.747 6.191 C 8.927 6.911 10.007 10.007 10.331 10.835 C 10.402 10.979 10.438 11.159 10.438 11.267 L 10.438 11.303 C 10.438 11.446 10.511 11.627 10.619 11.734 C 10.835 11.986 10.942 12.311 10.942 12.455 C 10.942 12.526 10.906 12.563 10.871 12.563 C 10.69 12.49 9.971 11.411 9.755 10.907 C 9.646 10.69 9.467 10.403 9.287 10.295 C 9.143 10.223 8.855 9.827 8.639 9.431 C 8.279 8.711 7.235 7.092 6.191 5.615 C 5.867 5.111 5.508 4.571 5.472 4.428 L 5.22 3.996 C 5.147 3.924 4.896 3.492 4.68 3.06 C 4.319 2.376 4.067 1.944 3.96 1.944 C 3.924 1.944 3.924 1.979 3.924 2.016 L 3.924 2.052 C 3.924 2.231 4.212 2.808 4.535 3.275 C 4.68 3.456 4.787 3.672 4.787 3.744 C 4.787 3.815 4.752 3.815 4.716 3.815 C 4.644 3.815 4.464 3.6 4.248 3.24 C 4.067 2.952 3.672 2.34 3.312 1.908 C 2.987 1.476 2.664 .9 2.592 .685 L 2.483 .252 C 1.224 .072 .9 -.036 .252 -.036 C .145 -.036 .036 -.036 0 0 " fill="#000003"/>
<path transform="matrix(1,0,0,-1,95.2607,142.22191)" d="M 0 0 C -.145 .036 -.756 .072 -1.368 .108 C -2.34 .108 -2.484 .108 -2.772 .36 C -2.988 .469 -3.384 .756 -3.744 .937 C -4.068 1.152 -4.284 1.404 -4.355 1.44 C -5.363 2.196 -5.651 3.563 -5.724 4.212 L -5.76 4.572 C -5.76 7.163 -2.88 10.007 -2.88 10.007 L -2.7 10.007 C -2.521 10.007 -2.484 9.971 -2.484 9.863 L -2.484 9.791 C -2.484 9.719 -2.448 9.647 -2.412 9.647 C -2.412 9.611 -4.896 6.876 -4.968 4.68 L -4.968 4.355 C -4.968 3.996 -4.968 3.563 -4.896 3.456 C -4.824 3.348 -4.68 3.06 -4.607 2.844 C -4.5 2.628 -4.248 2.304 -4.032 2.124 C -3.744 1.908 -3.636 1.872 -3.204 1.872 L -2.628 1.872 C -1.729 1.908 -1.548 1.944 -.864 2.269 C .359 2.916 .972 3.563 2.016 5.436 C 2.375 6.084 2.411 6.336 2.483 7.38 L 2.52 8.136 C 2.52 8.711 2.447 9.251 2.231 10.295 C 2.052 11.303 1.979 11.951 1.979 12.383 L 1.979 12.635 C 2.159 13.787 2.735 15.982 2.987 16.198 C 3.095 16.343 3.203 16.486 3.203 16.522 C 3.203 16.738 4.139 17.458 4.463 17.53 C 5.759 17.71 5.975 17.782 6.659 17.782 C 7.055 17.782 7.343 17.71 8.026 17.458 C 8.782 17.17 9.358 16.45 9.358 15.803 C 9.395 15.515 9.467 15.154 9.538 14.975 C 9.61 14.83 9.646 14.687 9.646 14.543 C 9.61 14.183 9.502 13.967 9.431 13.679 C 9.358 13.463 9.286 13.427 8.963 13.427 L 8.603 13.427 L 8.639 14.543 C 8.639 15.299 8.494 15.946 8.207 16.198 C 8.099 16.307 7.99 16.45 7.99 16.559 C 7.99 16.666 7.919 16.702 7.847 16.702 C 7.702 16.702 7.486 16.63 7.271 16.45 C 6.875 16.091 6.694 15.803 6.694 15.406 L 6.767 14.759 C 6.659 14.074 6.515 13.463 6.515 11.303 C 6.515 10.619 6.551 10.007 6.587 9.719 C 6.982 7.775 7.198 6.911 7.198 5.615 C 7.198 5.292 7.163 5.004 7.127 4.824 L 6.839 3.744 C 6.659 3.096 6.335 2.556 5.579 1.8 C 4.967 1.152 4.571 .9 3.6 .433 C 2.987 .145 2.663 .072 2.159 .036 L .575 -.035 C .323 -.035 .107 -.035 0 0 " fill="#000003"/>
<path transform="matrix(1,0,0,-1,109.3359,143.26581)" d="M 0 0 C -.288 0 -.54 .072 -1.044 .288 C -1.476 .505 -1.871 .792 -1.979 .937 C -2.052 1.08 -2.195 1.188 -2.304 1.188 C -2.52 1.188 -3.06 2.017 -3.887 3.636 C -4.355 4.607 -4.535 5.112 -4.644 5.832 C -4.679 6.155 -4.715 6.552 -4.715 6.947 C -4.715 8.315 -4.427 9.899 -3.995 10.871 C -2.879 13.283 -2.699 13.751 -2.483 13.931 C -2.34 14.039 -2.268 14.219 -2.268 14.291 C -2.268 14.327 -2.159 14.471 -2.087 14.543 C -1.979 14.65 -1.8 14.902 -1.691 15.118 C -1.583 15.37 -.972 16.055 -.359 16.666 C .504 17.53 .721 17.746 .973 17.746 L 1.368 17.674 C 1.44 17.674 1.477 17.71 1.477 17.746 L 1.404 17.962 C 1.404 18.178 1.656 18.286 2.16 18.286 L 2.736 18.25 C 3.924 18.178 5.399 17.854 5.58 17.674 C 5.651 17.603 5.796 17.566 5.939 17.566 C 6.048 17.566 6.3 17.351 6.552 17.135 C 6.84 16.811 6.983 16.522 7.092 15.946 C 7.163 15.551 7.199 14.938 7.199 14.398 C 7.199 13.895 7.163 13.463 7.092 13.391 C 7.02 13.354 6.804 13.103 6.623 12.851 C 6.443 12.635 6.264 12.455 6.191 12.455 L 6.155 12.455 C 6.119 12.491 6.048 12.923 6.048 13.427 C 6.048 14.362 5.76 15.406 5.472 15.406 C 5.399 15.406 5.184 15.227 5.04 15.011 C 4.859 14.795 4.607 14.471 4.428 14.327 C 4.284 14.183 4.176 14.003 4.176 13.931 C 4.176 13.858 3.96 13.57 3.744 13.247 C 3.492 12.959 3.24 12.491 3.168 12.203 C 2.916 11.483 2.34 10.331 2.088 10.115 C 1.872 9.972 1.404 8.999 1.404 8.747 C 1.404 8.676 1.368 8.604 1.296 8.604 C 1.26 8.567 .973 8.063 .685 7.451 C .217 6.552 .145 6.191 0 5.112 C -.071 4.284 -.107 3.708 -.107 3.313 C -.107 2.772 -.036 2.556 .072 2.556 C .396 2.556 .792 2.808 1.477 3.456 C 2.592 4.428 3.06 4.788 3.492 5.004 C 3.708 5.112 3.96 5.328 4.067 5.436 C 4.14 5.58 4.607 5.939 5.111 6.264 C 5.832 6.731 9.719 9.791 10.115 10.151 C 10.295 10.295 10.511 10.403 10.619 10.403 C 10.691 10.403 10.763 10.439 10.763 10.511 C 10.763 10.583 10.943 10.728 11.123 10.835 C 11.23 10.907 11.303 10.907 11.339 10.907 L 11.519 10.871 L 11.663 10.871 C 11.951 10.871 12.095 10.728 12.095 10.583 C 12.095 10.476 12.022 10.367 11.915 10.295 C 11.771 10.224 11.123 9.72 11.123 9.611 C 11.123 9.539 10.943 9.323 10.763 9.18 C 10.547 9.035 10.367 8.855 10.367 8.783 C 10.367 8.604 6.588 4.896 6.336 4.788 C 6.155 4.644 5.472 3.996 4.752 3.204 C 4.536 2.916 4.319 2.7 4.104 2.521 C 4.104 2.376 3.78 2.304 3.6 2.124 C 2.88 1.332 2.664 1.656 2.556 1.332 C 2.376 .612 1.584 .145 .252 0 Z " fill="#000003"/>
<path transform="matrix(1,0,0,-1,128.2354,143.6614)" d="M 0 0 C -.324 .54 -.324 1.224 -.432 4.067 C -.432 5.831 .396 7.487 2.124 11.591 L 2.124 11.627 C 2.124 11.662 2.052 11.698 2.016 11.698 C 1.8 11.698 .647 10.295 .576 10.295 C .288 10.295 -.072 9.827 -.864 9.071 C -1.476 8.531 -1.548 8.495 -1.8 8.099 C -2.592 6.947 -4.176 5.472 -4.607 4.392 C -5.004 3.563 -5.256 3.672 -5.399 2.916 L -5.76 1.764 C -5.903 1.187 -6.047 .72 -7.919 .576 C -8.351 .576 -8.567 .684 -9.071 1.08 C -9.935 1.764 -10.043 1.943 -10.115 3.168 L -10.15 3.96 C -10.15 5.075 -9.719 5.939 -9.035 8.099 C -8.567 9.971 -8.315 10.402 -7.883 11.41 L -7.883 11.446 C -7.883 11.807 -5.976 16.27 -5.976 16.378 C -5.976 16.45 -5.184 17.962 -5.004 18.502 C -4.859 18.97 -4.176 20.193 -4.031 20.661 C -3.6 22.173 -3.312 22.102 -3.132 22.713 C -3.023 23.217 -2.771 23.397 -2.771 24.117 L -2.808 25.161 L -2.268 25.161 C -1.439 25.161 -.648 24.261 -.252 24.261 C .18 24.261 1.26 22.929 1.26 21.633 C 1.26 20.842 1.008 19.869 .468 18.538 C .216 17.926 -.18 16.486 -.18 16.27 C -.18 16.054 -1.368 12.923 -1.62 12.563 C -1.8 12.347 -2.052 11.482 -2.556 10.223 C -2.88 9.539 -3.023 9.071 -3.023 8.891 C -3.023 8.819 -3.023 8.783 -2.987 8.783 C -2.88 8.783 -2.376 9.539 -2.124 9.539 C -1.979 9.539 -1.656 9.791 -1.368 10.079 L 1.439 12.778 C 2.016 13.354 2.231 13.282 2.483 13.643 C 2.663 13.895 3.023 14.074 3.312 14.074 C 3.527 14.074 3.6 13.822 3.959 13.822 C 4.14 13.822 4.283 13.75 4.283 13.643 C 4.283 13.427 4.751 13.139 5.075 13.139 L 5.255 13.139 C 5.976 13.139 7.163 11.41 7.163 10.511 C 7.163 9.755 6.407 8.711 6.407 8.459 C 6.407 8.243 5.903 6.768 5.651 6.407 C 5.399 6.012 4.571 3.96 4.283 3.6 C 4.14 3.384 3.995 3.168 3.995 3.096 L 3.995 3.06 C 3.995 2.987 3.779 2.771 3.6 2.556 C 2.628 1.764 2.268 1.332 2.195 1.08 C 2.088 .684 1.584 .18 1.368 .18 L 1.26 .18 C .792 .18 .72 -.899 .432 -.899 C .252 -.899 .252 -.576 0 0 " fill="#000003"/>
<path transform="matrix(1,0,0,-1,149.1504,120.62421)" d="M 0 0 C -.936 .18 -1.187 .252 -1.691 .864 C -2.052 1.187 -2.412 1.439 -2.483 1.439 L -2.592 1.548 L -2.556 1.764 C -2.556 2.016 -2.735 2.304 -3.096 2.735 C -3.275 2.951 -3.384 3.023 -3.384 3.203 L -3.239 3.708 C -3.167 3.96 -3.167 4.283 -3.167 4.464 L -2.915 5.147 C -2.735 5.436 -2.663 5.76 -2.663 5.831 C -2.663 5.939 -2.556 6.371 -2.412 6.803 C -2.231 7.307 -2.124 7.487 -1.908 7.487 L -.504 7.055 C -.144 6.983 0 6.875 0 6.803 C 0 6.623 .108 6.623 .36 6.623 L .684 6.695 L .792 6.623 C .792 6.551 1.044 6.371 1.296 6.264 C 1.908 5.939 2.088 5.76 2.771 4.716 L 3.203 4.031 L 2.699 2.304 C 2.699 1.979 2.592 1.62 2.52 1.62 C 2.412 1.62 2.412 1.439 2.412 1.296 C 2.412 1.187 2.34 .936 2.268 .864 L 1.979 .252 C 1.908 0 1.836 -.108 1.548 -.108 C 1.296 -.108 1.151 0 1.044 .072 C 1.008 .144 .936 .216 .899 .216 C .828 .216 .792 .144 .792 0 C .792 -.108 .684 -.18 .576 -.18 Z M -5.939 -16.09 C -5.363 -15.514 -4.896 -14.938 -4.896 -14.902 C -4.896 -14.83 -4.607 -14.47 -4.247 -14.146 C -3.923 -13.822 -3.491 -13.21 -3.312 -12.851 C -3.132 -12.49 -2.915 -12.202 -2.88 -12.202 C -2.844 -12.202 -2.592 -11.843 -2.376 -11.446 C -2.124 -11.051 -1.872 -10.727 -1.836 -10.69 C -1.764 -10.654 -1.728 -10.583 -1.728 -10.475 C -1.728 -10.402 -1.584 -10.15 -1.404 -9.898 C -1.044 -9.503 -1.044 -9.431 -1.044 -8.279 C -1.08 -7.235 -1.116 -7.02 -1.332 -6.768 C -1.476 -6.623 -1.728 -6.264 -1.872 -5.939 C -2.124 -5.472 -2.663 -5.075 -2.951 -5.075 C -3.023 -5.075 -3.096 -5.075 -3.132 -5.147 C -3.203 -5.255 -3.239 -5.436 -3.239 -5.615 C -3.239 -6.083 -3.6 -6.768 -4.067 -7.271 C -4.283 -7.523 -4.751 -8.314 -5.075 -8.999 C -5.399 -9.683 -5.723 -10.402 -5.831 -10.583 C -5.939 -10.799 -6.011 -11.194 -6.011 -11.482 C -6.011 -11.771 -6.047 -12.059 -6.119 -12.131 C -6.263 -12.238 -7.055 -14.146 -7.343 -15.01 C -7.487 -15.406 -7.559 -16.162 -7.559 -16.738 C -7.559 -17.098 -7.522 -17.35 -7.451 -17.386 L -7.379 -17.386 C -7.199 -17.386 -6.947 -17.134 -5.939 -16.09 M -8.099 0 C -9.034 .18 -9.286 .252 -9.791 .864 C -10.15 1.187 -10.511 1.439 -10.582 1.439 L -10.69 1.548 L -10.654 1.764 C -10.654 2.016 -10.834 2.304 -11.194 2.735 C -11.374 2.951 -11.482 3.023 -11.482 3.203 L -11.338 3.708 C -11.267 3.96 -11.267 4.283 -11.267 4.464 L -11.015 5.147 C -10.834 5.436 -10.763 5.76 -10.763 5.831 C -10.763 5.939 -10.654 6.371 -10.511 6.803 C -10.33 7.307 -10.223 7.487 -10.007 7.487 L -8.603 7.055 C -8.243 6.983 -8.099 6.875 -8.099 6.803 C -8.099 6.623 -7.991 6.623 -7.739 6.623 L -7.415 6.695 L -7.307 6.623 C -7.307 6.551 -7.055 6.371 -6.803 6.264 C -6.191 5.939 -6.011 5.76 -5.327 4.716 L -4.896 4.031 L -5.399 2.304 C -5.399 1.979 -5.507 1.62 -5.579 1.62 C -5.687 1.62 -5.687 1.439 -5.687 1.296 C -5.687 1.187 -5.759 .936 -5.831 .864 L -6.119 .252 C -6.191 0 -6.263 -.108 -6.551 -.108 C -6.803 -.108 -6.947 0 -7.055 .072 C -7.091 .144 -7.163 .216 -7.199 .216 C -7.271 .216 -7.307 .144 -7.307 0 C -7.307 -.108 -7.415 -.18 -7.522 -.18 Z M -8.099 -21.237 C -8.243 -21.201 -8.53 -21.129 -8.747 -21.129 C -8.999 -21.129 -9.179 -21.021 -9.322 -20.806 C -9.431 -20.625 -9.646 -20.481 -9.791 -20.481 C -10.043 -20.481 -11.086 -19.294 -11.303 -18.79 C -11.374 -18.609 -11.482 -18.466 -11.555 -18.466 C -11.626 -18.466 -11.698 -18.357 -11.698 -18.214 C -11.698 -18.069 -11.734 -17.962 -11.771 -17.962 C -11.878 -17.962 -12.238 -16.738 -12.418 -15.622 C -12.526 -15.118 -12.563 -14.435 -12.563 -13.75 C -12.563 -12.958 -12.49 -12.166 -12.382 -11.734 C -12.13 -10.871 -11.41 -8.999 -10.979 -8.135 C -10.799 -7.811 -10.69 -7.451 -10.69 -7.343 C -10.69 -7.271 -10.582 -7.091 -10.438 -6.947 C -10.223 -6.731 -9.971 -6.335 -9.503 -5.399 C -9.358 -5.075 -9.143 -4.787 -9.07 -4.716 C -8.963 -4.644 -8.891 -4.535 -8.891 -4.428 C -8.891 -4.355 -8.927 -4.319 -8.999 -4.319 L -9.143 -4.319 C -9.251 -4.319 -9.322 -4.283 -9.395 -4.212 C -9.467 -4.14 -9.467 -4.067 -9.467 -4.031 C -9.467 -3.924 -9.431 -3.815 -9.286 -3.636 C -9.143 -3.42 -8.854 -3.168 -8.639 -3.023 C -8.459 -2.916 -8.278 -2.735 -8.278 -2.664 C -8.278 -2.556 -8.099 -2.412 -7.883 -2.34 C -7.163 -2.016 -6.479 -1.872 -5.867 -1.872 C -5.327 -1.872 -4.823 -1.979 -4.392 -2.195 C -4.031 -2.34 -3.671 -2.483 -3.563 -2.483 C -3.312 -2.483 -1.836 -3.275 -1.439 -3.672 C -.432 -4.571 -.108 -4.968 .036 -5.507 C .108 -5.831 .252 -6.119 .288 -6.191 L .684 -7.091 C .899 -7.703 .972 -8.099 .972 -9.106 C .972 -10.259 .936 -10.402 .612 -10.979 C .432 -11.23 .36 -11.41 .36 -11.446 L .396 -11.482 L .432 -11.446 L .647 -11.339 C .647 -11.627 -.144 -13.103 -.54 -13.57 C -.972 -14.074 -1.224 -14.506 -1.872 -15.766 C -2.016 -16.018 -2.412 -16.521 -2.771 -16.918 C -3.167 -17.313 -3.491 -17.817 -3.527 -17.998 C -3.563 -18.142 -3.959 -18.646 -4.355 -19.042 C -4.787 -19.437 -5.147 -19.869 -5.147 -19.978 C -5.147 -20.266 -5.363 -20.518 -6.047 -20.949 C -6.479 -21.237 -6.947 -21.381 -7.379 -21.381 C -7.631 -21.381 -7.883 -21.31 -8.099 -21.237 " fill="#000003"/>
<path transform="matrix(1,0,0,-1,152.752,142.40161)" d="M 0 0 C -.072 .036 -.504 .108 -.937 .145 C -2.16 .216 -3.132 .864 -3.744 2.052 C -3.96 2.448 -4.032 2.628 -4.032 3.06 L -3.996 3.672 C -3.96 4.248 -3.815 4.968 -3.672 5.291 C -3.563 5.579 -3.348 6.228 -3.24 6.695 C -3.096 7.127 -2.952 7.631 -2.88 7.775 C -2.808 7.919 -2.592 8.495 -2.448 8.999 L -1.548 11.446 C -1.225 12.202 -.864 13.139 -.756 13.427 L -.072 15.334 C .216 16.054 .468 16.738 .468 16.846 C .468 16.99 .54 17.062 .611 17.098 C .684 17.098 .756 17.242 .756 17.422 C .756 17.565 .827 17.746 .899 17.817 C 1.008 17.89 1.151 18.142 1.26 18.357 C 1.548 19.006 1.907 19.401 2.195 19.401 C 2.304 19.401 2.411 19.33 2.483 19.186 C 2.556 19.042 2.699 18.97 2.808 18.97 L 2.844 18.97 C 2.951 18.97 3.167 18.861 3.312 18.718 C 3.455 18.574 3.6 18.502 3.743 18.502 L 4.283 18.574 L 4.427 18.538 C 4.463 18.502 4.607 18.466 4.751 18.466 L 4.787 18.466 C 5.111 18.466 6.047 17.638 6.263 17.134 L 6.335 16.774 C 6.335 16.414 6.191 15.982 5.939 15.586 C 5.831 15.442 5.687 14.975 5.579 14.542 C 5.471 14.11 5.291 13.643 5.183 13.427 C 5.003 13.103 3.815 9.971 3.815 9.791 C 3.815 9.719 3.707 9.431 3.527 9.107 C 3.167 8.315 1.619 3.708 1.619 3.239 L 1.619 3.168 C 1.619 3.132 1.619 3.132 1.655 3.132 L 1.871 3.239 C 2.016 3.348 2.159 3.563 2.195 3.672 C 2.304 3.96 4.463 7.163 4.859 7.595 C 5.003 7.739 5.111 7.955 5.111 8.063 C 5.147 8.171 5.219 8.279 5.327 8.315 C 5.435 8.387 5.507 8.459 5.543 8.531 C 5.543 8.639 6.335 9.827 6.479 9.935 C 6.551 9.971 6.73 10.295 6.911 10.619 C 7.091 10.942 7.522 11.555 7.883 11.95 C 8.242 12.383 8.53 12.778 8.53 12.851 C 8.53 12.923 9.179 13.679 10.007 14.542 C 11.374 15.982 11.519 16.09 11.95 16.162 C 12.238 16.162 12.526 16.126 12.598 16.054 C 12.706 15.946 13.103 15.874 13.57 15.874 L 14.397 15.91 C 14.542 15.91 14.649 15.874 14.686 15.802 C 14.722 15.73 14.794 15.658 14.901 15.658 L 15.01 15.658 C 15.262 15.658 15.622 15.334 15.945 14.758 C 16.09 14.506 16.197 14.219 16.197 13.858 C 16.197 13.103 15.838 11.95 14.974 9.827 C 14.649 9.071 14.362 8.279 14.326 8.063 L 14.11 7.523 C 13.894 7.271 13.498 6.191 13.498 6.012 L 13.498 5.976 C 13.57 5.976 13.966 6.264 14.397 6.659 C 14.83 7.056 16.918 8.711 17.098 8.855 C 17.565 9.179 18.249 9.791 18.43 9.863 C 18.609 9.935 18.897 10.115 19.077 10.223 L 19.186 10.259 C 19.401 10.259 19.617 10.043 19.617 9.898 L 19.617 9.863 C 19.581 9.791 19.509 9.683 19.437 9.683 C 19.365 9.683 18.249 8.387 17.781 7.883 C 17.277 7.343 15.046 5.472 14.794 5.184 C 14.506 4.896 14.146 4.464 13.93 4.212 C 13.39 3.563 12.418 2.556 12.274 2.52 C 12.202 2.52 12.059 2.376 11.95 2.196 C 11.842 1.979 11.734 1.836 11.662 1.836 C 11.626 1.836 11.519 1.656 11.41 1.476 C 11.122 .828 10.402 .432 9.719 .432 C 9.538 .432 9.358 .432 9.215 .504 L 8.387 .792 C 7.883 .972 7.271 1.728 7.019 2.592 C 6.911 2.916 6.875 3.384 6.875 3.852 C 6.875 4.787 7.055 5.831 7.415 6.659 C 7.631 7.127 7.883 7.595 7.99 7.703 C 8.099 7.847 8.171 7.991 8.171 8.063 C 8.171 8.135 8.351 8.495 8.53 8.855 C 8.711 9.215 8.891 9.646 8.963 9.827 C 9.034 10.043 9.106 10.187 9.179 10.223 C 9.251 10.223 9.286 10.331 9.286 10.475 C 9.322 10.619 9.538 11.087 9.79 11.555 C 10.114 12.167 10.402 13.066 10.402 13.427 C 10.402 13.498 10.402 13.57 10.33 13.57 C 10.187 13.57 9.467 12.671 9.467 12.526 L 9.467 12.454 C 9.467 12.383 9.395 12.347 9.286 12.274 C 8.927 12.095 7.703 10.475 6.407 8.387 C 5.759 7.308 5.039 6.228 4.859 6.012 C 4.644 5.76 4.319 5.291 4.14 4.968 C 3.959 4.644 3.707 4.283 3.6 4.176 C 3.491 4.067 3.419 3.96 3.419 3.888 C 3.419 3.815 3.131 3.42 2.808 2.952 C 2.483 2.52 2.123 1.979 2.016 1.8 C 1.548 1.008 .468 -.036 .071 -.036 Z " fill="#000003"/>
</g>
</g>
</g>
</svg>
